<svg t="1575961575714" class="icon" viewBox="0 0 1445 1024" version="1.1" xmlns="http://www.w3.org/2000/svg" p-id="70773" width="200" height="200"><path d="M1445.647059 339.907765v566.332235c0 43.851294-48.188235 87.642353-96.376471 87.642353H96.376471c-48.188235 0-96.376471-43.791059-96.376471-87.642353V339.907765h1445.647059zM1328.188235 632.470588h-106.977882c-5.842824 0-14.637176 9.637647-19.696941 21.443765L1133.025882 814.381176c-5.059765 11.806118-4.336941 21.263059 1.626353 21.263059h106.857412c6.023529 0 14.757647-9.456941 19.817412-21.263059l68.487529-160.527058c5.059765-11.866353 4.336941-21.443765-1.626353-21.443765z m-203.474823 0h-106.857412c-5.842824 0-14.757647 9.637647-19.817412 21.443765l-68.367059 160.527059c-5.059765 11.806118-4.336941 21.263059 1.505883 21.263059h106.857412c6.023529 0 14.878118-9.456941 19.877647-21.263059l68.427294-160.527059c5.059765-11.866353 4.336941-21.443765-1.626353-21.443765z m-203.354353 0H814.381176c-5.842824 0-14.757647 9.637647-19.817411 21.443765l-68.367059 160.527059c-5.059765 11.806118-4.336941 21.263059 1.505882 21.263059h106.977883c5.903059 0 14.757647-9.456941 19.817411-21.263059l68.367059-160.527059c5.059765-11.866353 4.397176-21.443765-1.505882-21.443765zM0 117.76C0 73.908706 48.188235 30.117647 96.376471 30.117647h1252.894117c48.188235 0 96.376471 43.791059 96.376471 87.642353v118.904471H0z" p-id="70774" fill="#44D8BB"></path></svg>
