<svg t="1575960424826" class="icon" viewBox="0 0 1024 1024" version="1.1" xmlns="http://www.w3.org/2000/svg" p-id="41072" width="200" height="200"><path d="M1024 210.304V813.653333C1024 906.282667 947.584 981.333333 853.333333 981.333333H256c-94.250667 0-170.666667-75.050667-170.666667-167.637333v-8.362667H0v-41.898666h85.333333v-209.493334H0V512h85.333333V302.506667H0v-41.941334h85.333333V210.346667C85.333333 117.717333 161.749333 42.666667 256 42.666667h597.333333c94.250667 0 170.666667 75.050667 170.666667 167.637333zM426.666667 403.029333c0 69.333333 57.429333 125.738667 128 125.738667s128-56.405333 128-125.738667C682.666667 333.738667 625.237333 277.333333 554.666667 277.333333s-128 56.405333-128 125.696z m128 134.101334c-103.04 0-189.226667 72.106667-209.066667 167.637333h418.133333c-19.84-95.488-106.026667-167.637333-209.066666-167.637333z" p-id="41073" fill="#0F8EE9"></path></svg>
