<svg t="1569552839496" class="icon" viewBox="0 0 1024 1024" version="1.1" xmlns="http://www.w3.org/2000/svg" p-id="10576" width="200" height="200">
  <path
    d="M315.23018272 87.39144691h-10.35630619c5.69596839 0 10.35630617-4.66033778 10.35630619-10.35630616v10.35630616h393.53963456v-10.35630616c0 5.69596839 4.66033778 10.35630617 10.35630619 10.35630616h-10.35630619v93.20675556h93.20675555v-103.56306172c0-45.69720098-37.15324839-82.85044939-82.85044936-82.85044939H304.87387653c-45.69720098 0-82.85044939 37.15324839-82.85044936 82.85044939v103.56306172h93.20675555v-93.20675556zM967.67747161 180.59820247H56.32252839c-22.91332741 0-41.42522469 18.51189728-41.42522469 41.4252247v41.42522468c0 5.69596839 4.66033778 10.35630617 10.35630617 10.35630618h78.19011161l31.97509532 677.04351605c2.07126124 44.14375506 38.5772405 78.96683457 82.72099555 78.96683456h587.7203753c44.27320889 0 80.64973431-34.69362569 82.72099555-78.96683456l31.97509532-677.04351605H998.74639013c5.69596839 0 10.35630617-4.66033778 10.35630617-10.35630618v-41.42522468c0-22.91332741-18.51189728-41.42522469-41.42522469-41.4252247zM795.89224297 936.60855309H228.10775703l-31.32782617-662.80359506h630.44013828l-31.32782617 662.80359506z"
    fill="#666666" p-id="10577"></path>
</svg>
