<svg t="1587974560937" class="icon" viewBox="0 0 1024 1024" version="1.1" xmlns="http://www.w3.org/2000/svg" p-id="33626" width="200" height="200">
    <path d="M656.138667 64a117.333333 117.333333 0 0 1 84.298666 35.712l186.528 192.64A117.333333 117.333333 0 0 1 960 373.973333V853.333333c0 58.912-47.754667 106.666667-106.666667 106.666667H170.666667c-58.912 0-106.666667-47.754667-106.666667-106.666667V170.666667c0-58.912 47.754667-106.666667 106.666667-106.666667h485.472zM757.333333 544H266.666667l-2.133334 0.053333A42.666667 42.666667 0 0 0 224 586.666667v288h96V650.666667h170.666667v224h309.333333V586.666667l-0.053333-2.133334A42.666667 42.666667 0 0 0 757.333333 544z m-96-394.666667H224v138.666667a42.666667 42.666667 0 0 0 42.666667 42.666667h352a42.666667 42.666667 0 0 0 42.666666-42.666667V149.333333z"
          fill="#666666"
    p-id="33627"></path>
</svg>
