<svg t="1575961251425" class="icon" viewBox="0 0 1024 1024" version="1.1" xmlns="http://www.w3.org/2000/svg" p-id="70007" width="200" height="200"><path d="M754.559692 649.897175c66.986915 34.175957 118.869849 79.1039 155.647802 136.789826 34.473956 50.260936 53.673932 98.985874 58.964926 158.975798 0.554999 6.099992 2.175997 33.833957-15.95698 56.276929-18.089977 22.399972-51.540935 22.058972-63.786919 22.058972H101.803521c-13.524983 0-48.809938-5.546993-63.35992-25.514968-14.549982-20.009975-18.004977-43.818944-16.938978-55.16793 5.375993-58.836925 23.63797-106.964864 52.309933-156.586801 36.735953-57.727927 88.617887-102.65587 153.470805-136.831826a39.76495 39.76495 0 0 1 47.53094 6.357992c60.458923 55.593929 128.426837 87.721889 220.41572 87.721888 91.989883 0 153.429805-32.127959 211.796731-87.721888 13.013983-10.666986 32.426959-14.933981 47.52994-6.399992zM179.115423 530.985326c-67.199915 0-119.892848-56.319929-119.892848-124.841842 0-44.031944 19.199976-83.199894 52.692933-105.172866 21.631973-58.794925 62.292921-137.002826 103.081869-178.645773C289.280283 44.031944 389.931155 0 495.360021 0c105.386866 0 206.079738 44.031944 280.362644 122.239845 38.313951 41.642947 81.492897 119.935848 103.081869 178.644773 31.14696 24.447969 52.692933 61.183922 52.692933 105.172866 0 68.565913-52.692933 124.842842-119.892847 124.842842v-251.98968C761.386683 149.205811 636.799842 56.192929 495.360021 56.192929c-141.48282 0-263.679665 93.055882-316.287598 222.762717v252.03068zM683.049783 228.18071a247.892685 247.892685 0 0 1 77.652901 189.01276 268.07466 268.07466 0 0 1-77.652901 189.01376 266.666661 266.666661 0 0 1-187.690762 76.457903 265.386663 265.386663 0 0 1-265.386663-265.471663 268.03166 268.03166 0 0 1 77.653901-189.01276 266.623662 266.623662 0 0 1 187.732762-76.457903c71.20991 0 138.069825 25.428968 187.732762 76.457903z" p-id="70008" fill="#F97968"></path></svg>
