<svg t="1575961977943" class="icon" viewBox="0 0 1024 1024" version="1.1" xmlns="http://www.w3.org/2000/svg" p-id="84559" width="200" height="200"><path d="M624.99709 695.423393l-91.954633-54.369012v-108.680225c0-11.574254-9.137664-20.917828-20.518653-20.917828-11.305128 0-20.448211 9.343573-20.448211 20.917828v108.620619l-91.882384 54.428618c-9.818609 5.835895-13.20527 18.690759-7.448849 28.715277 3.794867 6.773323 10.633214 10.560965 17.809324 10.560965 3.453492 0 7.046062-0.948265 10.158178-2.844796l91.882384-54.300375 91.949214 54.300375a20.161022 20.161022 0 0 0 10.230427 2.844796c7.103861 0 14.019875-3.78403 17.742494-10.560965 5.61373-10.024518 2.295705-22.881188-7.519291-28.715277m0 0zM659.714434 403.585289l-77.61325-30.246951s-14.801968-5.745584-20.551165-11.397245c-3.695525-3.632307-3.428205-12.202819-0.157142-23.150315s43.058466-55.436488 43.058466-95.850648c0-62.413914-41.033694-113.018764-91.643963-113.018764-50.608463 0-91.636738 50.604851-91.636738 113.022377 0 38.707283 35.456088 84.852578 39.830751 93.240661 4.378276 8.388083 3.312606 21.170698-0.144497 25.043233-5.191075 5.816027-24.156379 11.646503-24.156379 11.646503l-69.967524 31.182572c-16.346286 5.873826-29.152382 21.289909-29.152382 38.683803v8.25081c0 18.983367 15.417889 30.599164 34.365132 30.599164h282.56136c18.950855 0 34.368744-11.615797 34.368744-30.599164v-8.25081c-0.005419-17.397506-12.811515-33.286818-29.161413-39.155226m0 0" p-id="84560" fill="#F97968"></path><path d="M887.178876 816.568338l-77.613251-30.246951s-14.801968-5.745584-20.551165-11.397245c-3.695525-3.632307-3.428205-12.202819-0.157141-23.150315s43.058466-55.436488 43.058466-95.850648c0-62.413914-41.033694-113.018764-91.643963-113.018764-50.608463 0-91.636738 50.604851-91.636738 113.022377 0 38.707283 35.456088 84.852578 39.830751 93.240661 4.378276 8.388083 3.312606 21.170698-0.144497 25.043233-5.191075 5.816027-24.156379 11.646503-24.156379 11.646503l-69.967524 31.182573c-16.346286 5.873826-29.152382 21.289909-29.152382 38.683802v8.25081c0 18.983367 15.417889 30.599164 34.365132 30.599164h282.56136c18.950855 0 34.368744-11.615797 34.368744-30.599164v-8.25081c-0.005419-17.397506-12.813321-33.286818-29.161413-39.155226m0 0M429.367266 816.568338l-77.613251-30.246951s-14.801968-5.745584-20.551165-11.397245c-3.695525-3.632307-3.428205-12.202819-0.157141-23.150315s43.058466-55.436488 43.058466-95.850648c0-62.413914-41.033694-113.018764-91.643963-113.018764-50.608463 0-91.636738 50.604851-91.636738 113.022377 0 38.707283 35.454282 84.852578 39.830751 93.240661 4.378276 8.388083 3.312606 21.170698-0.144497 25.043233-5.191075 5.816027-24.156379 11.646503-24.156379 11.646503l-69.967524 31.182573c-16.346286 5.873826-29.152382 21.289909-29.152382 38.683802v8.25081c0 18.983367 15.417889 30.599164 34.365132 30.599164h282.56136c18.950855 0 34.368744-11.615797 34.368744-30.599164v-8.25081c-0.005419-17.397506-12.813321-33.286818-29.161413-39.155226m0 0" p-id="84561" fill="#F97968"></path></svg>
