<svg t="1575960873232" class="icon" viewBox="0 0 1365 1024" version="1.1" xmlns="http://www.w3.org/2000/svg" p-id="55834" width="200" height="200"><path d="M1258.632533 34.4064H106.7008C47.991467 34.4064 0 84.992 0 146.773333v730.862934c0 61.8496 47.991467 112.4352 106.7008 112.4352h1151.931733c58.709333 0 106.7008-50.5856 106.7008-112.4352V146.773333c0-61.8496-47.991467-112.4352-106.7008-112.4352zM623.274667 778.8544a57.480533 57.480533 0 0 1-6.417067 20.411733c-1.8432 2.935467-7.509333 6.007467-16.7936 9.0112a286.72 286.72 0 0 1-34.679467 8.260267c-13.858133 2.525867-29.0816 4.9152-45.738666 7.168-16.657067 2.2528-33.450667 4.232533-50.3808 5.597867-16.930133 1.570133-33.1776 2.8672-49.083734 3.822933-15.701333 0.955733-29.559467 1.570133-41.437866 1.570133s-25.6-0.6144-41.233067-1.570133a2471.936 2471.936 0 0 1-97.621333-8.738133 872.8576 872.8576 0 0 1-44.6464-6.007467 495.069867 495.069867 0 0 1-34.4064-6.7584c-9.284267-2.2528-15.1552-4.369067-17.408-6.485333-3.8912-3.4816-6.9632-13.994667-9.352534-31.607467-2.389333-17.544533-1.774933-40.209067 2.116267-67.857067 2.389333-16.042667 8.3968-28.125867 18.295467-36.2496 9.693867-8.055467 21.2992-14.677333 34.6112-19.592533a431.445333 431.445333 0 0 1 41.233066-13.175467 121.0368 121.0368 0 0 0 57.344-33.5872 56.797867 56.797867 0 0 0 9.966934-15.018666 40.1408 40.1408 0 0 0 3.208533-15.906134c0-5.461333-0.273067-11.810133-0.682667-18.8416a37.205333 37.205333 0 0 0-9.966933-23.7568 258.2528 258.2528 0 0 0-18.6368-17.066666 40.7552 40.7552 0 0 1-8.942933-12.765867 144.520533 144.520533 0 0 1-6.826667-16.520533 355.874133 355.874133 0 0 1-5.7344-20.411734 35.771733 35.771733 0 0 1-8.533333-4.5056 39.3216 39.3216 0 0 1-7.509334-9.0112c-2.594133-4.096-5.051733-9.557333-7.441066-16.5888a48.674133 48.674133 0 0 1 0.8192-35.362133 47.240533 47.240533 0 0 1 7.850666-13.653333 339.012267 339.012267 0 0 1 2.184534-49.083734c1.8432-14.062933 4.9152-28.808533 8.874666-44.100266 4.027733-15.36 10.4448-29.559467 18.978134-42.5984 7.5776-12.0832 16.247467-21.9136 25.736533-29.354667a126.907733 126.907733 0 0 1 59.323733-26.4192c9.966933-1.570133 19.592533-2.2528 28.672-2.2528 24.234667 0 46.011733 5.3248 65.058134 15.837867 19.114667 10.581333 33.1776 21.981867 42.257066 33.928533 10.513067 13.653333 18.295467 28.808533 23.210667 45.6704 5.051733 16.861867 8.669867 32.5632 11.0592 47.104 2.389333 17.066667 3.345067 34.133333 2.798933 51.2 2.389333 2.048 4.5056 4.778667 6.417067 8.328533a47.854933 47.854933 0 0 1 4.369067 29.354667 61.44 61.44 0 0 1-5.7344 21.981867 55.773867 55.773867 0 0 1-8.533334 12.765866 22.7328 22.7328 0 0 1-11.4688 6.7584 357.034667 357.034667 0 0 1-5.7344 20.343467c-1.8432 5.461333-4.232533 11.127467-7.168 16.5888a35.0208 35.0208 0 0 1-9.352533 12.151467 284.0576 284.0576 0 0 1-10.376533 8.942933 77.6192 77.6192 0 0 0-8.260267 7.918933 44.8512 44.8512 0 0 0-10.171733 22.186667c-0.955733 6.621867-1.365333 13.175467-1.024 19.933867a53.179733 53.179733 0 0 0 18.6368 38.775466c6.417067 6.075733 15.36 11.264 26.8288 15.906134 9.966933 4.5056 21.026133 8.465067 33.1776 11.6736 12.151467 3.208533 23.893333 7.168 35.089066 11.605333 11.195733 4.573867 21.162667 10.308267 29.969067 17.339733a57.412267 57.412267 0 0 1 18.909867 27.101867c1.911467 7.031467 3.4816 15.633067 4.7104 25.6 1.160533 10.103467 1.706667 20.2752 1.706666 30.5152 0 10.6496-0.682667 20.343467-2.116266 29.4912z m600.746666-7.9872h-469.265066a32.9728 32.9728 0 0 1-32.085334-33.723733c0-18.568533 14.472533-33.723733 32.085334-33.723734h469.333333c17.544533 0 31.9488 15.1552 31.9488 33.723734s-14.336 33.723733-31.9488 33.723733z m0-224.8704h-469.265066a32.9728 32.9728 0 0 1-32.085334-33.723733c0-18.568533 14.472533-33.723733 32.085334-33.723734h469.333333c17.544533 0 31.9488 15.1552 31.9488 33.723734s-14.336 33.723733-31.9488 33.723733z m0-224.8704h-469.265066a32.9728 32.9728 0 0 1-32.085334-33.723733c0-18.568533 14.472533-33.723733 32.085334-33.723734h469.333333c17.544533 0 31.9488 15.1552 31.9488 33.723734 0 18.500267-14.336 33.723733-31.9488 33.723733z" p-id="55835" fill="#0BAFFF"></path></svg>
