<svg t="1575961017291" class="icon" viewBox="0 0 1024 1024" version="1.1" xmlns="http://www.w3.org/2000/svg" p-id="56153" width="200" height="200"><path d="M72.398014 428.934142a41.589998 41.589998 0 0 1-36.017209-20.789704 41.600588 41.600588 0 0 1 0-41.589998 41.584115 41.584115 0 0 1 36.017209-20.794411h83.063505a41.582938 41.582938 0 0 1 36.012502 20.794411 41.584115 41.584115 0 0 1-36.012502 62.379702H72.398014zM196.843243 636.592315c-0.060011 22.940688-18.630484 41.526457-41.567641 41.606472H72.287406c-22.970105 0-41.588821-18.618717-41.588822-41.584115 0-22.971281 18.618717-41.588821 41.588822-41.588822h83.059974c22.961868 0 41.533517 18.605773 41.533517 41.567641h-0.037654z" p-id="56154" fill="#7390FE"></path><path d="M736.407134 866.685199l-272.0959 54.746535 62.362052-292.391396L917.433352 245.798125V124.29579c0-30.566795-24.770436-55.352528-55.340761-55.374885H169.938297a55.377238 55.377238 0 0 0-55.374885 55.374885v207.658172h41.567642c30.584446 0 55.374885 24.791616 55.374885 55.374885 0 30.584446-24.791616 55.379592-55.374885 55.379592H114.563412v138.399559h41.605295c30.579739 0 55.374885 24.791616 55.374886 55.374885 0 30.583269-24.795146 55.374885-55.374886 55.374885H114.597536V899.553594c0 30.583269 24.795146 55.374885 55.378415 55.374885h692.078986c30.583269 0 55.378415-24.791616 55.378415-55.374885V694.830079l-181.026218 171.85512zM304.85251 213.759294h422.291744c19.495348 0 35.300607 15.805258 35.300607 35.300607s-15.805258 35.300607-35.300607 35.300606H304.85251c-19.495348 0-35.300607-15.805258-35.300607-35.300606s15.805258-35.300607 35.300607-35.300607z m-35.300607 204.735282c0-19.495348 15.805258-35.300607 35.300607-35.300607H512c19.495348 0 35.300607 15.805258 35.300607 35.300607s-15.805258 35.300607-35.300607 35.300607H304.85251c-19.495348 0-35.300607-15.805258-35.300607-35.300607z" p-id="56155" fill="#7390FE"></path><path d="M998.115242 444.31344l-61.676044-61.781945a43.25501 43.25501 0 0 0-30.579739-12.890605 43.266777 43.266777 0 0 0-30.715057 12.552896l-18.919949 19.141165 123.270895 123.602721 18.951719-19.175289c16.84898-17.073727 16.69954-44.563486-0.331825-61.448943z m-191.956463 1.865049l128.713072 128.902519 29.401876-27.646259-128.717779-128.940173-29.397169 27.683913zM584.241515 796.88531s20.447288-81.559698 23.620813-96.109432c43.499761 18.691671 72.861629 72.976944 72.861629 72.976944l-96.482442 23.132488z m281.79886-251.128516l-33.619121-33.803861 0.18827-0.183564-45.067108-45.109468-204.978857 203.523294a17.955065 17.955065 0 0 0-6.267034 8.880456L528.68895 849.226696l173.711933-43.836293a17.462033 17.462033 0 0 0 8.355653-5.78577l205.461298-204.077514-49.993896-49.993896-0.183563 0.183563v0.040008z m-220.460526-35.891304" p-id="56156" fill="#7390FE"></path></svg>
