<svg t="1575961098916" class="icon" viewBox="0 0 1024 1024" version="1.1" xmlns="http://www.w3.org/2000/svg" p-id="56359" width="200" height="200"><path d="M938.666667 423.978667C938.666667 189.866667 757.162667 0 533.333333 0S128 189.866667 128 423.978667c0 109.952 40.021333 210.090667 105.642667 285.44 6.528 7.509333 183.466667 208.128 262.272 297.514666a49.493333 49.493333 0 0 0 74.752 0c78.933333-89.514667 255.701333-290.005333 262.272-297.557333C898.645333 634.197333 938.666667 533.930667 938.666667 423.936z m-405.333334 201.216c-105.685333 0-191.402667-89.642667-191.402666-200.192 0-110.506667 85.717333-200.234667 191.402666-200.234667s191.402667 89.685333 191.402667 200.234667c0 110.506667-85.717333 200.192-191.402667 200.192z" p-id="56360" fill="#44D8BB"></path></svg>
