<svg t="1575961525149" class="icon" viewBox="0 0 1024 1024" version="1.1" xmlns="http://www.w3.org/2000/svg" p-id="70601" width="200" height="200"><path d="M491.360427 629.461333L9.483093 174.848c-23.168-18.730667 0-42.154667 27.818667-42.154667L991.79776 128c32.426667 0 37.077333 28.117333 27.818667 46.848L537.696427 629.461333c-13.866667 14.08-32.426667 14.08-46.336 0zM1024.011093 325.802667v486.741333C1024.011093 858.922667 982.496427 896 936.37376 896H87.819093c-46.08 0-87.594667-37.12-87.594666-83.456 0 0 0-496 4.608-486.741333 0-23.168 23.04-37.12 41.472-18.56l373.589333 347.733333c27.648 23.125333 59.946667 37.034667 92.202667 37.034667 32.298667 0 64.597333-13.909333 92.245333-37.077334l378.154667-347.690666c13.824-18.517333 41.514667-4.608 41.514666 18.56z" p-id="70602" fill="#7390FE"></path></svg>
