<svg t="1575961745623" class="icon" viewBox="0 0 1024 1024" version="1.1" xmlns="http://www.w3.org/2000/svg" p-id="84387" width="200" height="200"><path d="M774.4 0H249.6c-32 0-57.6 25.6-57.6 57.6v908.8c0 32 25.6 57.6 57.6 57.6h524.8c32 0 57.6-25.6 57.6-57.6V57.6c0-32-25.6-57.6-57.6-57.6zM460.8 57.6h96c12.8 0 19.2 6.4 19.2 12.8s-6.4 12.8-12.8 12.8H460.8c-6.4 0-12.8-6.4-12.8-12.8s6.4-12.8 12.8-12.8zM512 985.6c-32 0-51.2-25.6-51.2-51.2 0-32 25.6-51.2 51.2-51.2 32 0 51.2 25.6 51.2 51.2s-19.2 51.2-51.2 51.2z m236.8-153.6H275.2c-19.2 0-32-12.8-32-32v-640c0-19.2 12.8-32 32-32h473.6c19.2 0 32 12.8 32 32v640c0 19.2-19.2 32-32 32z" p-id="84388" fill="#0BAFFF"></path></svg>
