<svg t="1575960832785" class="icon" viewBox="0 0 1204 1024" version="1.1" xmlns="http://www.w3.org/2000/svg" p-id="55680" width="200" height="200"><path d="M1204.705882 777.456941s2.590118 216.425412-219.015529 216.425412H219.015529C0 993.882353 0 777.456941 0 777.456941V263.408941C0 85.955765 77.342118 51.983059 222.027294 30.117647l760.832 0.240941C1100.559059 53.609412 1204.705882 86.256941 1204.705882 262.927059v514.529882zM122.699294 282.322824v489.231058h359.363765V282.383059H122.699294zM866.785882 587.053176h-221.424941c-32.828235 0-65.054118 30.72-65.054117 64.993883 0 34.032941 32.346353 64.873412 65.054117 64.873412h221.364706c32.828235 0 65.114353-30.72 65.114353-64.993883 0-34.093176-32.466824-64.873412-65.114353-64.873412h0.060235z m163.237647-228.231529h-384.542117c-32.888471 0-65.054118 30.72-65.054118 65.054118 0 34.032941 32.346353 64.873412 65.054118 64.933647H1030.023529c32.888471 0 65.054118-30.900706 65.054118-64.993883 0-34.213647-32.346353-64.993882-65.114353-64.993882z" p-id="55681" fill="#44D8BB"></path></svg>
