<svg t="1575961432723" class="icon" viewBox="0 0 1024 1024" version="1.1" xmlns="http://www.w3.org/2000/svg" p-id="70385" width="200" height="200"><path d="M441.321739 857.043478c-5.565217-5.565217-15.026087-5.565217-20.591304 0l-43.965218-43.965217c57.321739-77.913043 51.2-188.104348-18.921739-258.226087-77.356522-77.356522-203.130435-77.356522-280.486956 0-77.356522 77.356522-77.356522 203.130435 0 280.486956 70.121739 70.121739 180.869565 76.243478 258.226087 18.92174l43.965217 43.965217c-5.565217 5.565217-5.565217 15.026087 0 20.591304l100.730435 100.730435c2.782609 2.782609 6.678261 4.452174 10.573913 4.452174s7.791304-1.669565 10.573913-4.452174l41.182609-41.182609c5.565217-5.565217 5.565217-15.026087 0-20.591304L441.321739 857.043478z m-151.373913-89.6c-40.069565 40.069565-105.182609 40.069565-145.252174 0-40.069565-40.069565-40.069565-105.182609 0-145.252174 40.069565-40.069565 105.182609-40.069565 145.252174 0 40.069565 40.626087 40.069565 105.73913 0 145.252174m178.643478-467.478261c62.886957 190.886957 238.191304 190.886957 301.078261 0 20.591304-11.130435 41.73913-43.408696 45.634783-69.565217 3.895652-27.826087 1.669565-65.113043-26.713044-65.113043-6.121739-89.6-55.652174-165.286957-166.956521-165.286957C512 0 456.904348 65.669565 449.669565 165.286957c-28.382609 0-30.052174 37.286957-26.713043 65.113043 3.895652 26.713043 25.043478 58.991304 45.634782 69.565217m369.530435 154.713044L766.886957 439.652174l-148.034783 294.956522-148.034783-294.956522-71.234782 15.026087c-30.608696 6.121739-57.878261 19.478261-81.252174 36.173913 21.704348 10.573913 42.295652 25.043478 60.104348 42.852174 72.904348 72.904348 86.817391 186.991304 35.617391 274.921739L428.521739 823.652174c12.243478-0.556522 24.486957 3.895652 33.391304 12.8l99.06087 98.504348h444.66087v-282.156522c-0.556522-95.165217-70.121739-177.530435-167.513044-198.121739z" p-id="70386" fill="#BE6DF6"></path></svg>
