<svg t="1575960210732" class="icon" viewBox="0 0 1170 1024" version="1.1" xmlns="http://www.w3.org/2000/svg" p-id="27158" width="200" height="200"><path d="M195.047619 0h780.190476a195.047619 195.047619 0 0 1 195.047619 195.047619v633.904762a195.047619 195.047619 0 0 1-195.047619 195.047619H195.047619a195.047619 195.047619 0 0 1-195.047619-195.047619V195.047619a195.047619 195.047619 0 0 1 195.047619-195.047619z m749.958095 470.942476c16.384 0 29.744762-13.897143 29.744762-30.963809a30.47619 30.47619 0 0 0-29.744762-30.96381h-250.928762a30.47619 30.47619 0 0 0-29.744762 30.96381c0 17.066667 13.360762 30.96381 29.744762 30.963809h250.928762z m0 118.491429c16.384 0 29.744762-13.897143 29.744762-30.96381a30.47619 30.47619 0 0 0-29.744762-30.963809h-218.160762a30.47619 30.47619 0 0 0-29.744762 30.963809c0 17.066667 13.360762 31.012571 29.744762 31.012572h218.160762z m0 118.491428c16.384 0 29.744762-13.897143 29.744762-30.915047a30.47619 30.47619 0 0 0-29.744762-31.012572h-152.039619a30.47619 30.47619 0 0 0-29.744762 31.012572c0 17.066667 13.360762 30.96381 29.744762 30.963809h152.039619z m-362.983619-369.42019C582.022095 259.267048 520.289524 195.047619 444.220952 195.047619 368.152381 195.047619 306.41981 259.267048 306.41981 338.505143c0 79.238095 61.732571 143.457524 137.801142 143.457524s137.801143-64.219429 137.801143-143.457524z m111.372191 368.883809c0-118.101333-111.518476-213.869714-249.173334-213.869714-137.606095 0-249.173333 95.768381-249.173333 213.869714 0 88.551619 498.346667 92.013714 498.346667 0z" p-id="27159" fill="#0F8EE9"></path></svg>
