<?xml version="1.0" standalone="no"?><!DOCTYPE svg PUBLIC "-//W3C//DTD SVG 1.1//EN" "http://www.w3.org/Graphics/SVG/1.1/DTD/svg11.dtd">
<svg t="1587969089955" class="icon" viewBox="0 0 1077 1024" version="1.1" xmlns="http://www.w3.org/2000/svg" p-id="16577"
     width="210.3515625" height="200">
    <defs>
        <style type="text/css"></style>
    </defs>
    <path d="M105.956774 257.996121A521.430207 521.430207 0 0 1 557.701269 0.002695C844.959461 0.002695 1077.8919 229.216407 1077.8919 512.001347S845.013355 1024 557.701269 1024c-239.561475 0-441.288944-159.366317-501.758679-376.238168l127.137349-28.186873c47.26556 159.689685 197.038639 276.425378 374.567436 276.425378 215.524485 0 390.196868-171.923758 390.196868-383.99899s-174.672382-383.998989-390.196868-383.998989a391.328654 391.328654 0 0 0-326.223984 173.540596l81.596417 28.240768-213.853753 171.384812L0 221.293902l105.956774 36.702219z"
          fill="#666666" p-id="16578"></path>
</svg>
