<svg t="1590645744539" class="icon" viewBox="0 0 1024 1024" version="1.1" xmlns="http://www.w3.org/2000/svg" p-id="18031" width="200" height="200"><path d="M945.694118 885.458824a66.258824 66.258824 0 0 1 0 132.517647H78.305882a66.258824 66.258824 0 0 1 0-132.517647zM750.953412 11.300141l153.322917 153.322918a24.094118 24.094118 0 0 1 0 34.081129L363.893459 739.087059a24.094118 24.094118 0 0 1-11.384471 6.384941l-163.803859 39.538447a48.188235 48.188235 0 0 1-58.151153-58.151153l39.538448-163.803859a24.094118 24.094118 0 0 1 6.384941-11.38447L716.872282 11.300141a24.094118 24.094118 0 0 1 34.08113 0z" fill="#666666" p-id="18032"></path></svg>
